<?xml version="1.0" encoding="UTF-8" standalone="no"?>
<!DOCTYPE svg PUBLIC "-//W3C//DTD SVG 1.1//EN" "http://www.w3.org/Graphics/SVG/1.1/DTD/svg11.dtd">
<svg version="1.1" xmlns="http://www.w3.org/2000/svg" xmlns:xlink="http://www.w3.org/1999/xlink" preserveAspectRatio="xMidYMid meet" viewBox="0 0 1100 800" width="1100" height="800"><defs><path d="M832.57 745.42C832.57 745.42 819.42 718.92 826.4 692.33C833.38 665.74 857.85 649.13 857.85 649.13C857.85 649.13 871 675.62 864.02 702.21C857.03 728.8 838.86 736.78 832.57 745.42Z" id="g2iy3cVSuy"></path><path d="M831.68 745.4C831.68 745.4 861.2 743.57 880.76 724.25C900.31 704.93 902.5 675.43 902.5 675.43C902.5 675.43 872.98 677.27 853.42 696.59C833.87 715.91 836.03 735.64 831.68 745.4Z" id="a1jCBKNxJo"></path><path d="M144.82 601.63L181.65 601.63C236.11 580.32 266.36 568.48 272.41 566.11C272.41 566.11 336.86 539.8 331.6 589.79C331.6 589.79 317.13 706.86 317.13 706.86C317.13 706.86 288.2 693.7 272.41 697.65C272.41 697.65 267.15 617.41 267.15 617.41C267.15 617.41 138.24 679.23 126.41 671.34C126.41 671.34 111.94 608.2 111.94 608.2C116.32 607.33 127.28 605.13 144.82 601.63Z" id="k2smA7AV7i"></path><path d="M144.82 601.63L181.65 601.63C236.11 580.32 266.36 568.48 272.41 566.11C272.41 566.11 336.86 539.8 331.6 589.79C331.6 589.79 317.13 706.86 317.13 706.86C317.13 706.86 288.2 693.7 272.41 697.65C272.41 697.65 267.15 617.41 267.15 617.41C267.15 617.41 138.24 679.23 126.41 671.34C126.41 671.34 111.94 608.2 111.94 608.2C116.32 607.33 127.28 605.13 144.82 601.63Z" id="aetWiRjoR"></path><path d="M202.85 486.29L247.42 550.33C309.77 602.42 344.41 631.35 351.33 637.14C351.33 637.14 447.36 659.5 434.2 675.29C421.05 691.07 340.81 659.5 340.81 659.5C340.81 659.5 221.11 572.69 217.17 566.11C213.22 559.53 169.81 497.71 169.81 497.71C174.22 496.19 185.23 492.38 202.85 486.29Z" id="e1dEIE9pcl"></path><path d="M202.85 486.29L247.42 550.33C309.77 602.42 344.41 631.35 351.33 637.14C351.33 637.14 447.36 659.5 434.2 675.29C421.05 691.07 340.81 659.5 340.81 659.5C340.81 659.5 221.11 572.69 217.17 566.11C213.22 559.53 169.81 497.71 169.81 497.71C174.22 496.19 185.23 492.38 202.85 486.29Z" id="b1wacgBAow"></path><path d="M176.39 434.58C193.75 468.51 203.4 487.37 205.33 491.14C205.33 491.14 198.75 518.76 188.23 521.39C188.23 521.39 132.98 487.19 132.98 487.19C138.77 480.17 153.24 462.64 176.39 434.58Z" id="ahSzhsxFE"></path><path d="M176.39 434.58C193.75 468.51 203.4 487.37 205.33 491.14C205.33 491.14 198.75 518.76 188.23 521.39C188.23 521.39 132.98 487.19 132.98 487.19C138.77 480.17 153.24 462.64 176.39 434.58Z" id="cjOrFLmAl"></path><path d="M537.97 607.6C538.07 608 538.05 608.41 537.93 608.79C534.05 620.91 503.03 717.85 499.15 729.97C498.78 731.13 497.54 731.76 496.38 731.39C495.56 731.13 494.96 730.41 494.87 729.54C494.33 724.82 490.04 687.06 489.5 682.34C489.47 682.03 489.5 681.71 489.6 681.41C493.15 670.49 521.63 583.1 525.19 572.18C525.56 571.02 526.81 570.39 527.96 570.77C528.69 571 529.24 571.6 529.42 572.34C531.13 579.39 537.12 604.08 537.97 607.6Z" id="dJwqKyyiY"></path><path d="M534.17 605.57L499.97 716.06L492.08 681.86L526.28 575.32L526.28 575.32L534.17 605.57Z" id="b6rmKC0nm"></path><path d="M492.08 737.11C493.22 735.46 494.19 733.7 494.97 731.85C496.21 729.22 497.34 726.59 497.34 726.59C496.99 723.75 495.23 709.55 492.08 684C411.58 681.14 366.85 679.55 357.91 679.23C357.91 679.23 354.56 715.33 353.87 731.85C353.7 736.02 353.7 738.95 353.96 739.74C355.28 743.69 490.76 738.42 492.08 737.11Z" id="g8RvFOom"></path><path d="M477.61 726.59L418.42 726.59L418.42 689.76L474.98 689.76L474.98 689.76L477.61 726.59Z" id="a1Jtc7jDuS"></path><path d="M399.04 701.52L397.37 717.38L364.49 717.38L364.49 701.59L398.69 701.59L398.69 701.59L399.04 701.52Z" id="a7tmdlzDK"></path><path d="M492.08 737.11C493.22 735.46 494.19 733.7 494.97 731.85C480.86 731.85 367.98 731.85 353.87 731.85C353.7 736.02 353.7 738.95 353.96 739.74C355.28 743.69 490.76 738.42 492.08 737.11Z" id="f48ffcOtbZ"></path><path d="M196.12 297.78C163.43 297.78 136.93 324.28 136.93 356.97C136.93 389.66 163.43 416.16 196.12 416.16C228.81 416.16 255.31 389.66 255.31 356.97C255.31 324.28 228.81 297.78 196.12 297.78Z" id="e1JoxTn62q"></path><path d="M168.5 462.2C168.5 462.2 109.31 425.37 109.31 425.37C108.58 423.46 102.79 408.2 102.07 406.29C102.07 406.29 154.03 381.96 150.08 362.23C146.14 342.5 192.17 409.58 192.17 409.58C187.44 420.11 172.44 443.78 168.5 462.2Z" id="a8xpQtDqX"></path><path d="M202.7 512.18L256.63 583.21C333.97 640.82 376.94 672.83 385.53 679.23C385.53 679.23 478.92 698.96 457.88 713.43C457.88 713.43 376.33 700.28 376.33 700.28C376.33 700.28 246.1 630.56 218.48 601.63C190.86 572.69 139.56 524.02 139.56 524.02C147.98 522.44 169.02 518.5 202.7 512.18Z" id="cvwjN6IoK"></path><path d="M146.14 647.66C202.66 629.88 234.06 620 240.34 618.03C261.01 611.52 283.67 613.92 302.01 625.47C318.45 635.83 328.97 652.27 305.3 676.6C257.94 725.27 226.37 698.96 226.37 698.96C226.37 698.96 67.21 773.94 40.91 737.11C14.6 700.28 13.28 681.86 13.28 681.86C13.28 681.86 114.57 618.73 130.35 622.67C132.46 626 137.72 634.34 146.14 647.66Z" id="bdxGWUewk"></path><path d="M319.76 750.26C319.76 750.26 232.95 745 232.95 745C232.95 745 189.54 745 189.54 722.64C189.54 722.64 204.01 697.65 204.01 697.65C208.48 698.31 244.26 703.57 248.73 704.23C248.73 704.23 302.66 689.76 327.66 709.49C326.08 717.64 369.75 737.11 319.76 750.26Z" id="dHAdegvqt"></path><path d="M257.08 346.52C261.46 347.04 266.45 345.51 268.52 341.62C269.64 339.52 269.77 337.04 269.82 334.66C269.98 327.44 269.46 319.63 264.88 314.04C261.97 310.48 257.72 308.24 254.7 304.77C252.54 302.28 251.1 299.27 249.55 296.36C243.69 285.35 235.01 274.76 222.94 271.59C217.9 270.26 212.61 270.32 207.4 270.4C204.37 270.44 180.06 270.78 177.02 270.83C172.1 270.9 167.11 270.98 162.4 272.4C152.62 275.36 145.5 283.58 138.97 291.45C134.09 297.33 129.2 303.28 125.54 309.99C120.29 319.78 117.63 330.76 117.83 341.87C117.79 344.72 118.15 347.56 118.92 350.3C119.81 352.82 120.92 355.26 122.23 357.58C127.93 368.78 131.32 382.76 124.9 393.56C136.05 389 147.08 383.03 154.43 373.49C157.72 369.23 160.3 364.23 164.69 361.1C169.07 357.97 176.22 357.7 179.03 362.3C180 364.15 180.49 366.22 180.48 368.32C180.68 371.76 180.68 375.35 182.14 378.48C183.6 381.61 187.09 384.13 190.41 383.2C196.14 381.58 195.59 372.79 200 368.8C203.35 365.77 208.52 366.35 212.82 364.97C217.84 363.37 221.6 359.02 223.74 354.21C225.37 350.56 225.35 341 228.43 339.02C232.3 336.53 241.09 340.48 244.68 342.08C248.71 343.87 252.7 346 257.08 346.52Z" id="a3dVXncZK"></path><path d="M105.5 400.08C113.94 402.34 132.87 408.34 136.93 417.48C142.19 429.31 160.61 447.73 160.61 447.73C160.61 447.73 185.6 472.72 180.34 489.82C175.07 506.92 155.34 526.65 155.34 526.65C155.34 526.65 160.61 608.2 134.3 629.25C107.99 650.3 97.47 635.83 97.47 655.56C97.47 675.29 15.91 737.11 0.13 698.96C0.13 698.96 8.02 627.93 5.39 602.94C2.8 578.31 6.59 424.63 97.37 400.06C100.04 399.34 102.84 399.35 105.5 400.08Z" id="b3zabZ38v9"></path><path d="M205.33 517.44C205.33 517.44 156.66 541.12 146.14 539.8C135.61 538.49 94.84 492.45 84.31 488.51C73.79 484.56 68.53 413.53 139.56 433.26C152.71 450.1 219.8 492.45 205.33 517.44Z" id="bp0H096od"></path><path d="M498.04 172.41C462.16 172.41 433.06 201.5 433.06 237.39C433.06 273.27 462.16 302.37 498.04 302.37C533.93 302.37 563.02 273.27 563.02 237.39C563.02 201.5 533.93 172.41 498.04 172.41Z" id="d1cO9LNdS"></path><path d="M1034.75 152.99L670.61 152.99L670.61 76.8L1034.75 76.8L1034.75 152.99ZM672.21 151.39L1033.14 151.39L1033.14 78.4L672.21 78.4L672.21 151.39Z" id="cPFENlCU"></path><path d="M1008.28 92.04C1008.28 92.04 1008.28 92.04 1008.28 92.04C1008.28 136.79 1008.28 161.66 1008.28 166.63C1008.28 166.63 1008.28 166.63 1008.28 166.63C790.76 166.63 669.91 166.63 645.74 166.63C645.74 166.63 645.74 166.63 645.74 166.63C645.74 121.87 645.74 97.01 645.74 92.04C645.74 92.04 645.74 92.04 645.74 92.04C863.27 92.04 984.11 92.04 1008.28 92.04Z" id="aURYu0OQC"></path><path d="M416.57 9.62C413.47 9.62 410.96 12.14 410.96 15.24C410.96 18.34 413.47 20.85 416.57 20.85C419.67 20.85 422.18 18.34 422.18 15.24C422.18 12.14 419.67 9.62 416.57 9.62Z" id="b3IVv3jVRr"></path><path d="M435.82 9.62C432.72 9.62 430.2 12.14 430.2 15.24C430.2 18.34 432.72 20.85 435.82 20.85C438.92 20.85 441.43 18.34 441.43 15.24C441.43 12.14 438.92 9.62 435.82 9.62Z" id="e1Nv6o1chg"></path><path d="M455.07 9.62C451.97 9.62 449.45 12.14 449.45 15.24C449.45 18.34 451.97 20.85 455.07 20.85C458.17 20.85 460.68 18.34 460.68 15.24C460.68 12.14 458.17 9.62 455.07 9.62Z" id="bVRyObVUA"></path><path d="M1075.87 439.53L400.53 439.53L400.53 0L1075.87 0L1075.87 439.53ZM402.13 437.93L1074.27 437.93L1074.27 1.6L402.13 1.6L402.13 437.93Z" id="aoGGRvYG"></path><path d="M1075.07 24.33C1075.07 24.33 1075.07 24.33 1075.07 24.33C1075.07 25.29 1075.07 25.83 1075.07 25.93C1075.07 25.93 1075.07 25.93 1075.07 25.93C670.83 25.93 446.25 25.93 401.33 25.93C401.33 25.93 401.33 25.93 401.33 25.93C401.33 24.97 401.33 24.44 401.33 24.33C401.33 24.33 401.33 24.33 401.33 24.33C805.57 24.33 1030.15 24.33 1075.07 24.33Z" id="aNzNRYn2n"></path><path d="M411.76 12.83C411.76 9.29 414.63 6.42 418.17 6.42C421.72 6.42 424.59 9.29 424.59 12.83C424.59 12.83 424.59 12.83 424.59 12.83C424.59 16.38 421.72 19.25 418.17 19.25C414.63 19.25 411.76 16.38 411.76 12.83ZM413.36 12.83C413.36 15.49 415.52 17.65 418.17 17.65C420.83 17.65 422.99 15.49 422.99 12.83C422.99 12.83 422.99 12.83 422.99 12.83C422.98 10.18 420.83 8.02 418.17 8.02C415.52 8.02 413.36 10.18 413.36 12.83Z" id="a561LEIykL"></path><path d="M431.01 12.83C431.01 9.29 433.88 6.42 437.42 6.42C440.97 6.42 443.84 9.29 443.84 12.83C443.84 12.83 443.84 12.83 443.84 12.83C443.84 16.38 440.97 19.25 437.42 19.25C433.88 19.25 431.01 16.38 431.01 12.83ZM432.61 12.83C432.61 15.49 434.77 17.65 437.42 17.65C440.08 17.65 442.24 15.49 442.24 12.83C442.24 12.83 442.24 12.83 442.24 12.83C442.23 10.18 440.08 8.02 437.42 8.02C434.77 8.02 432.61 10.18 432.61 12.83Z" id="aO3oV8nzH"></path><path d="M450.26 12.83C450.26 9.29 453.13 6.42 456.67 6.42C460.22 6.42 463.09 9.29 463.09 12.83C463.09 16.38 460.22 19.25 456.67 19.25C453.13 19.25 450.26 16.38 450.26 12.83ZM451.86 12.83C451.86 15.49 454.02 17.65 456.67 17.65C459.33 17.65 461.49 15.49 461.49 12.83C461.49 12.83 461.49 12.83 461.49 12.83C461.48 10.18 459.33 8.02 456.67 8.02C454.02 8.02 451.86 10.18 451.86 12.83Z" id="hDeF4v4V7"></path><path d="M613.66 25.13C613.66 25.13 613.66 25.13 613.66 25.13C613.66 273.67 613.66 411.74 613.66 439.35C613.66 439.35 613.66 439.35 613.66 439.35C612.7 439.35 612.16 439.35 612.06 439.35C612.06 439.35 612.06 439.35 612.06 439.35C612.06 190.82 612.06 52.75 612.06 25.13C612.06 25.13 612.06 25.13 612.06 25.13C613.02 25.13 613.55 25.13 613.66 25.13Z" id="d1iPL3T8wV"></path><path d="M806.56 228.79C806.56 228.79 806.56 228.79 806.56 228.79C806.56 238.41 806.56 243.76 806.56 244.83C806.56 244.83 806.56 244.83 806.56 244.83C735.82 244.83 696.52 244.83 688.66 244.83C688.66 244.83 688.66 244.83 688.66 244.83C688.66 235.21 688.66 229.86 688.66 228.79C688.66 228.79 688.66 228.79 688.66 228.79C759.4 228.79 798.7 228.79 806.56 228.79Z" id="e5LAFy075O"></path><path d="M991.84 228.79C991.84 228.79 991.84 228.79 991.84 228.79C991.84 238.41 991.84 243.76 991.84 244.83C991.84 244.83 991.84 244.83 991.84 244.83C921.09 244.83 881.79 244.83 873.93 244.83C873.93 244.83 873.93 244.83 873.93 244.83C873.93 235.21 873.93 229.86 873.93 228.79C873.93 228.79 873.93 228.79 873.93 228.79C944.68 228.79 983.98 228.79 991.84 228.79Z" id="d3B2XX1CAV"></path><path d="M813.78 237.61L694.27 237.61L694.27 219.97L813.78 219.97L813.78 237.61ZM695.87 236.01L812.17 236.01L812.17 221.57L695.87 221.57L695.87 236.01Z" id="a2OtzJIltH"></path><path d="M806.56 353.11C806.56 353.11 806.56 353.11 806.56 353.11C806.56 362.74 806.56 368.08 806.56 369.15C806.56 369.15 806.56 369.15 806.56 369.15C735.82 369.15 696.52 369.15 688.66 369.15C688.66 369.15 688.66 369.15 688.66 369.15C688.66 359.53 688.66 354.18 688.66 353.11C688.66 353.11 688.66 353.11 688.66 353.11C759.4 353.11 798.7 353.11 806.56 353.11Z" id="bi53Xkyay"></path><path d="M813.78 361.93L694.27 361.93L694.27 344.29L813.78 344.29L813.78 361.93ZM695.87 360.33L812.17 360.33L812.17 345.89L695.87 345.89L695.87 360.33Z" id="j1yIhN0SMR"></path><path d="M992.24 289.35C992.24 289.35 992.24 289.35 992.24 289.35C992.24 298.97 992.24 304.32 992.24 305.39C992.24 305.39 992.24 305.39 992.24 305.39C810.33 305.39 709.27 305.39 689.06 305.39C689.06 305.39 689.06 305.39 689.06 305.39C689.06 295.76 689.06 290.42 689.06 289.35C689.06 289.35 689.06 289.35 689.06 289.35C870.97 289.35 972.03 289.35 992.24 289.35Z" id="at6DENond"></path><path d="M999.46 299.77L694.67 299.77L694.67 282.13L999.46 282.13L999.46 299.77ZM696.28 298.17L997.85 298.17L997.85 283.73L696.28 283.73L696.28 298.17Z" id="b1MyNoCWnv"></path><path d="M999.06 237.61L879.55 237.61L879.55 219.97L999.06 219.97L999.06 237.61ZM881.15 236.01L997.45 236.01L997.45 221.57L881.15 221.57L881.15 236.01Z" id="aMmJ6N1MQ"></path><path d="M443.06 219.39C443.06 182.95 472.6 153.41 509.04 153.41C545.48 153.41 575.02 182.95 575.02 219.39C574.98 255.81 545.46 285.33 509.04 285.37C472.6 285.37 443.06 255.83 443.06 219.39ZM445.06 219.39C445.06 254.73 473.71 283.37 509.04 283.37C544.38 283.37 573.02 254.73 573.02 219.39C572.98 184.07 544.36 155.45 509.04 155.41C473.71 155.41 445.06 184.06 445.06 219.39Z" id="a1Sm5ZoKzb"></path><path d="M1030.88 744.23C1030.88 744.23 1030.88 744.23 1030.88 744.23C1030.88 745.43 1030.88 746.1 1030.88 746.23C1030.88 746.23 1030.88 746.23 1030.88 746.23C861.13 746.23 766.83 746.23 747.97 746.23C747.97 746.23 747.97 746.23 747.97 746.23C747.97 745.03 747.97 744.37 747.97 744.23C747.97 744.23 747.97 744.23 747.97 744.23C917.72 744.23 1012.02 744.23 1030.88 744.23Z" id="aLGQvBP38"></path></defs><g><g><g><use xlink:href="#g2iy3cVSuy" opacity="1" fill="#3f3d56" fill-opacity="1"></use><g><use xlink:href="#g2iy3cVSuy" opacity="1" fill-opacity="0" stroke="#000000" stroke-width="1" stroke-opacity="0"></use></g></g><g><use xlink:href="#a1jCBKNxJo" opacity="1" fill="#6c63ff" fill-opacity="1"></use><g><use xlink:href="#a1jCBKNxJo" opacity="1" fill-opacity="0" stroke="#000000" stroke-width="1" stroke-opacity="0"></use></g></g><g><use xlink:href="#k2smA7AV7i" opacity="1" fill="#2f2e41" fill-opacity="1"></use><g><use xlink:href="#k2smA7AV7i" opacity="1" fill-opacity="0" stroke="#000000" stroke-width="1" stroke-opacity="0"></use></g></g><g><use xlink:href="#aetWiRjoR" opacity="1" fill="#000000" fill-opacity="1"></use><g><use xlink:href="#aetWiRjoR" opacity="1" fill-opacity="0" stroke="#000000" stroke-width="1" stroke-opacity="0"></use></g></g><g><use xlink:href="#e1dEIE9pcl" opacity="1" fill="#a0616a" fill-opacity="1"></use><g><use xlink:href="#e1dEIE9pcl" opacity="1" fill-opacity="0" stroke="#000000" stroke-width="1" stroke-opacity="0"></use></g></g><g><use xlink:href="#b1wacgBAow" opacity="1" fill="#000000" fill-opacity="1"></use><g><use xlink:href="#b1wacgBAow" opacity="1" fill-opacity="0" stroke="#000000" stroke-width="1" stroke-opacity="0"></use></g></g><g><use xlink:href="#ahSzhsxFE" opacity="1" fill="#d0cde1" fill-opacity="1"></use><g><use xlink:href="#ahSzhsxFE" opacity="1" fill-opacity="0" stroke="#000000" stroke-width="1" stroke-opacity="0"></use></g></g><g><use xlink:href="#cjOrFLmAl" opacity="1" fill="#000000" fill-opacity="1"></use><g><use xlink:href="#cjOrFLmAl" opacity="1" fill-opacity="0" stroke="#000000" stroke-width="1" stroke-opacity="0"></use></g></g><g><use xlink:href="#dJwqKyyiY" opacity="1" fill="#2f2e41" fill-opacity="1"></use><g><use xlink:href="#dJwqKyyiY" opacity="1" fill-opacity="0" stroke="#000000" stroke-width="1" stroke-opacity="0"></use></g></g><g><use xlink:href="#b6rmKC0nm" opacity="1" fill="#f2f2f2" fill-opacity="1"></use><g><use xlink:href="#b6rmKC0nm" opacity="1" fill-opacity="0" stroke="#000000" stroke-width="1" stroke-opacity="0"></use></g></g><g><use xlink:href="#g8RvFOom" opacity="1" fill="#2f2e41" fill-opacity="1"></use><g><use xlink:href="#g8RvFOom" opacity="1" fill-opacity="0" stroke="#000000" stroke-width="1" stroke-opacity="0"></use></g></g><g><use xlink:href="#a1Jtc7jDuS" opacity="1" fill="#000000" fill-opacity="1"></use><g><use xlink:href="#a1Jtc7jDuS" opacity="1" fill-opacity="0" stroke="#000000" stroke-width="1" stroke-opacity="0"></use></g></g><g><use xlink:href="#a7tmdlzDK" opacity="1" fill="#000000" fill-opacity="1"></use><g><use xlink:href="#a7tmdlzDK" opacity="1" fill-opacity="0" stroke="#000000" stroke-width="1" stroke-opacity="0"></use></g></g><g><use xlink:href="#f48ffcOtbZ" opacity="1" fill="#000000" fill-opacity="1"></use><g><use xlink:href="#f48ffcOtbZ" opacity="1" fill-opacity="0" stroke="#000000" stroke-width="1" stroke-opacity="0"></use></g></g><g><use xlink:href="#e1JoxTn62q" opacity="1" fill="#ffd5cb" fill-opacity="1"></use><g><use xlink:href="#e1JoxTn62q" opacity="1" fill-opacity="0" stroke="#000000" stroke-width="1" stroke-opacity="0"></use></g></g><g><use xlink:href="#a8xpQtDqX" opacity="1" fill="#ffd5cb" fill-opacity="1"></use><g><use xlink:href="#a8xpQtDqX" opacity="1" fill-opacity="0" stroke="#000000" stroke-width="1" stroke-opacity="0"></use></g></g><g><use xlink:href="#cvwjN6IoK" opacity="1" fill="#ffd5cb" fill-opacity="1"></use><g><use xlink:href="#cvwjN6IoK" opacity="1" fill-opacity="0" stroke="#000000" stroke-width="1" stroke-opacity="0"></use></g></g><g><use xlink:href="#bdxGWUewk" opacity="1" fill="#2f2e41" fill-opacity="1"></use><g><use xlink:href="#bdxGWUewk" opacity="1" fill-opacity="0" stroke="#000000" stroke-width="1" stroke-opacity="0"></use></g></g><g><use xlink:href="#dHAdegvqt" opacity="1" fill="#d0cde1" fill-opacity="1"></use><g><use xlink:href="#dHAdegvqt" opacity="1" fill-opacity="0" stroke="#000000" stroke-width="1" stroke-opacity="0"></use></g></g><g><use xlink:href="#a3dVXncZK" opacity="1" fill="#2f2e41" fill-opacity="1"></use><g><use xlink:href="#a3dVXncZK" opacity="1" fill-opacity="0" stroke="#000000" stroke-width="1" stroke-opacity="0"></use></g></g><g><use xlink:href="#b3zabZ38v9" opacity="1" fill="#d0cde1" fill-opacity="1"></use><g><use xlink:href="#b3zabZ38v9" opacity="1" fill-opacity="0" stroke="#000000" stroke-width="1" stroke-opacity="0"></use></g></g><g><use xlink:href="#bp0H096od" opacity="1" fill="#d0cde1" fill-opacity="1"></use><g><use xlink:href="#bp0H096od" opacity="1" fill-opacity="0" stroke="#000000" stroke-width="1" stroke-opacity="0"></use></g></g><g><use xlink:href="#d1cO9LNdS" opacity="1" fill="#f2f2f2" fill-opacity="1"></use><g><use xlink:href="#d1cO9LNdS" opacity="1" fill-opacity="0" stroke="#000000" stroke-width="1" stroke-opacity="0"></use></g></g><g><use xlink:href="#cPFENlCU" opacity="1" fill="#3f3d56" fill-opacity="1"></use><g><use xlink:href="#cPFENlCU" opacity="1" fill-opacity="0" stroke="#000000" stroke-width="1" stroke-opacity="0"></use></g></g><g><use xlink:href="#aURYu0OQC" opacity="1" fill="#6c63ff" fill-opacity="1"></use><g><use xlink:href="#aURYu0OQC" opacity="1" fill-opacity="0" stroke="#000000" stroke-width="1" stroke-opacity="0"></use></g></g><g><use xlink:href="#b3IVv3jVRr" opacity="1" fill="#6c63ff" fill-opacity="1"></use><g><use xlink:href="#b3IVv3jVRr" opacity="1" fill-opacity="0" stroke="#000000" stroke-width="1" stroke-opacity="0"></use></g></g><g><use xlink:href="#e1Nv6o1chg" opacity="1" fill="#6c63ff" fill-opacity="1"></use><g><use xlink:href="#e1Nv6o1chg" opacity="1" fill-opacity="0" stroke="#000000" stroke-width="1" stroke-opacity="0"></use></g></g><g><use xlink:href="#bVRyObVUA" opacity="1" fill="#6c63ff" fill-opacity="1"></use><g><use xlink:href="#bVRyObVUA" opacity="1" fill-opacity="0" stroke="#000000" stroke-width="1" stroke-opacity="0"></use></g></g><g><use xlink:href="#aoGGRvYG" opacity="1" fill="#3f3d56" fill-opacity="1"></use><g><use xlink:href="#aoGGRvYG" opacity="1" fill-opacity="0" stroke="#000000" stroke-width="1" stroke-opacity="0"></use></g></g><g><use xlink:href="#aNzNRYn2n" opacity="1" fill="#3f3d56" fill-opacity="1"></use><g><use xlink:href="#aNzNRYn2n" opacity="1" fill-opacity="0" stroke="#000000" stroke-width="1" stroke-opacity="0"></use></g></g><g><use xlink:href="#a561LEIykL" opacity="1" fill="#3f3d56" fill-opacity="1"></use><g><use xlink:href="#a561LEIykL" opacity="1" fill-opacity="0" stroke="#000000" stroke-width="1" stroke-opacity="0"></use></g></g><g><use xlink:href="#aO3oV8nzH" opacity="1" fill="#3f3d56" fill-opacity="1"></use><g><use xlink:href="#aO3oV8nzH" opacity="1" fill-opacity="0" stroke="#000000" stroke-width="1" stroke-opacity="0"></use></g></g><g><use xlink:href="#hDeF4v4V7" opacity="1" fill="#3f3d56" fill-opacity="1"></use><g><use xlink:href="#hDeF4v4V7" opacity="1" fill-opacity="0" stroke="#000000" stroke-width="1" stroke-opacity="0"></use></g></g><g><use xlink:href="#d1iPL3T8wV" opacity="1" fill="#3f3d56" fill-opacity="1"></use><g><use xlink:href="#d1iPL3T8wV" opacity="1" fill-opacity="0" stroke="#000000" stroke-width="1" stroke-opacity="0"></use></g></g><g><use xlink:href="#e5LAFy075O" opacity="1" fill="#f2f2f2" fill-opacity="1"></use><g><use xlink:href="#e5LAFy075O" opacity="1" fill-opacity="0" stroke="#000000" stroke-width="1" stroke-opacity="0"></use></g></g><g><use xlink:href="#d3B2XX1CAV" opacity="1" fill="#f2f2f2" fill-opacity="1"></use><g><use xlink:href="#d3B2XX1CAV" opacity="1" fill-opacity="0" stroke="#000000" stroke-width="1" stroke-opacity="0"></use></g></g><g><use xlink:href="#a2OtzJIltH" opacity="1" fill="#3f3d56" fill-opacity="1"></use><g><use xlink:href="#a2OtzJIltH" opacity="1" fill-opacity="0" stroke="#000000" stroke-width="1" stroke-opacity="0"></use></g></g><g><use xlink:href="#bi53Xkyay" opacity="1" fill="#f2f2f2" fill-opacity="1"></use><g><use xlink:href="#bi53Xkyay" opacity="1" fill-opacity="0" stroke="#000000" stroke-width="1" stroke-opacity="0"></use></g></g><g><use xlink:href="#j1yIhN0SMR" opacity="1" fill="#3f3d56" fill-opacity="1"></use><g><use xlink:href="#j1yIhN0SMR" opacity="1" fill-opacity="0" stroke="#000000" stroke-width="1" stroke-opacity="0"></use></g></g><g><use xlink:href="#at6DENond" opacity="1" fill="#f2f2f2" fill-opacity="1"></use><g><use xlink:href="#at6DENond" opacity="1" fill-opacity="0" stroke="#000000" stroke-width="1" stroke-opacity="0"></use></g></g><g><use xlink:href="#b1MyNoCWnv" opacity="1" fill="#3f3d56" fill-opacity="1"></use><g><use xlink:href="#b1MyNoCWnv" opacity="1" fill-opacity="0" stroke="#000000" stroke-width="1" stroke-opacity="0"></use></g></g><g><use xlink:href="#aMmJ6N1MQ" opacity="1" fill="#3f3d56" fill-opacity="1"></use><g><use xlink:href="#aMmJ6N1MQ" opacity="1" fill-opacity="0" stroke="#000000" stroke-width="1" stroke-opacity="0"></use></g></g><g><use xlink:href="#a1Sm5ZoKzb" opacity="1" fill="#3f3d56" fill-opacity="1"></use><g><use xlink:href="#a1Sm5ZoKzb" opacity="1" fill-opacity="0" stroke="#000000" stroke-width="1" stroke-opacity="0"></use></g></g><g><use xlink:href="#aLGQvBP38" opacity="1" fill="#3f3d56" fill-opacity="1"></use><g><use xlink:href="#aLGQvBP38" opacity="1" fill-opacity="0" stroke="#000000" stroke-width="1" stroke-opacity="0"></use></g></g></g></g></svg>